<?xml version="1.0" encoding="utf-8"?>
<!-- Generator: Adobe Illustrator 21.1.0, SVG Export Plug-In . SVG Version: 6.00 Build 0)  -->
<svg version="1.1" id="Calque_1" xmlns="http://www.w3.org/2000/svg" xmlns:xlink="http://www.w3.org/1999/xlink" x="0px" y="0px"
	 viewBox="0 0 432 432" style="enable-background:new 0 0 432 432;" xml:space="preserve">
<style type="text/css">
	.st0{fill:#BE1622;}
	.st1{fill:#C69C6C;}
	.st2{fill:#F39200;}
	.st3{fill:#F9B03D;}
	.st4{fill:#5BA7AD;}
	.st5{fill:#3F7579;}
	.st6{fill:#1B1B1B;}
	.st7{fill:#FFFFFF;}
	.st8{fill:#D8B6C4;}
	.st9{fill:#765844;}
	.st10{fill:#E9B2C5;}
	.st11{fill:#C7B29A;}
	.st12{fill:#EDBD7D;}
	.st13{fill:#1D71B8;}
	.st14{fill:#95C11F;}
	.st15{fill:#E94E1B;}
	.st16{fill:#575756;}
	.st17{fill:#844C16;}
	.st18{fill:#E50071;}
	.st19{fill:#AF175D;}
	.st20{fill:#E4051E;}
	.st21{fill:#13110C;}
	.st22{fill:#891A2C;}
	.st23{fill:#28295F;}
	.st24{fill:#CECFBC;}
	.st25{fill:#981F24;}
	.st26{fill:#020203;}
	.st27{fill:#BC2333;}
	.st28{fill:#AD1917;}
	.st29{fill:#04683B;}
	.st30{fill:#049348;}
	.st31{fill:#2D3D8D;}
	.st32{fill:#F39233;}
	.st33{fill:#EB5C35;}
	.st34{fill:#AA1917;}
	.st35{fill:#55514F;}
	.st36{fill:#20376D;}
	.st37{fill:#B3BBC5;}
	.st38{fill:#BAC6BC;}
	.st39{fill:#B4BA8C;}
	.st40{fill:#746458;}
	.st41{fill:#343434;}
	.st42{fill:#CEC3BC;}
	.st43{fill:#FBBA0E;}
	.st44{fill:#FED98D;}
	.st45{fill:#676767;}
	.st46{fill:#8DBE22;}
	.st47{fill:#D0E1A4;}
	.st48{fill:#EFE8E4;}
	.st49{fill:#754695;}
	.st50{fill:#A78BC0;}
	.st51{fill:#8EC045;}
	.st52{fill:#0D71B9;}
	.st53{fill:#EAC686;}
	.st54{fill:#D24063;}
	.st55{fill:#E2A11A;}
	.st56{fill:#E9BD71;}
	.st57{fill:#E8423E;}
	.st58{fill:#F8AE4C;}
	.st59{fill:#00A19A;}
	.st60{fill:#2578B9;}
	.st61{fill:#A29F9D;}
	.st62{fill:#D2B89A;}
	.st63{fill:#E6C2A9;}
	.st64{fill:#6E3B11;}
	.st65{fill:#9B6228;}
	.st66{fill:#C9A1CB;}
	.st67{fill:#F8AB00;}
	.st68{fill:#BEBBBB;}
	.st69{fill:#066938;}
	.st70{fill:#36A36A;}
	.st71{fill:#4F702A;}
	.st72{fill:#A4191E;}
	.st73{fill:#3AAA35;}
	.st74{fill:#D01419;}
	.st75{fill:#CA1527;}
	.st76{fill:#684A40;}
	.st77{fill:#9A7B65;}
	.st78{fill:#FBB700;}
	.st79{fill:#82BB26;}
	.st80{fill:#00A8E4;}
	.st81{fill:#CEA57B;}
	.st82{fill:#57B031;}
	.st83{fill:#E5251F;}
	.st84{fill:#EFDD37;}
	.st85{fill:#59C4E9;}
	.st86{fill:#F08017;}
	.st87{fill:#974393;}
	.st88{fill:#F9EA31;}
	.st89{fill:#C1292E;}
	.st90{fill:#F2D77E;}
	.st91{fill:#E6332A;}
	.st92{fill:#29235C;}
	.st93{fill:#3C3C3B;}
	.st94{fill:#2FAC66;}
	.st95{fill:#2D2E83;}
	.st96{fill:#645B51;}
	.st97{fill:#36A9E1;}
	.st98{fill:#312783;}
	.st99{fill:#2E4959;}
	.st100{fill:#5F8699;}
	.st101{fill:#172B35;}
	.st102{fill:#C3D5E4;}
	.st103{fill:#7B9135;}
	.st104{fill:#E59546;}
	.st105{fill:#B2C65F;}
	.st106{fill:#85BBB7;}
	.st107{fill:#F39323;}
	.st108{fill:#FFFFFE;}
	.st109{fill:#EFD2AC;}
	.st110{fill:#C0E0EF;}
	.st111{fill:#EFDAEC;}
	.st112{fill:#63B8A4;}
	.st113{fill:#BDCCD4;}
	.st114{fill:#8C633A;}
	.st115{fill:#CA9E67;}
	.st116{fill:#7D4E24;}
	.st117{fill:#B8B569;}
	.st118{fill:#E8C515;}
	.st119{fill:#A5A258;}
	.st120{fill:#AA884D;}
	.st121{fill:#9E994B;}
	.st122{fill:#D1A479;}
	.st123{fill:#936037;}
	.st124{fill:#FAFAFA;}
	.st125{fill:#98CDC5;}
	.st126{fill:#E1EBE8;}
	.st127{fill:#DDCE9E;}
	.st128{fill:#A67D52;}
	.st129{fill:#437156;}
	.st130{fill:#4F8366;}
	.st131{fill:#8F6947;}
	.st132{fill:#856143;}
	.st133{fill:#171512;}
	.st134{fill:#AA191B;}
	.st135{fill:#1C1A38;}
	.st136{fill:#8E8C38;}
	.st137{fill:#CAC955;}
	.st138{fill:#6C6A29;}
	.st139{fill:#D8D564;}
	.st140{fill:#5CABD5;}
	.st141{fill:#70B4D9;}
	.st142{fill:#9A9999;}
	.st143{fill:#B4B4B4;}
	.st144{fill:#ABAA3D;}
	.st145{fill:#D7DB2F;}
	.st146{fill:#B8CED8;}
	.st147{fill:#05AB9E;}
	.st148{fill:#DAB828;}
	.st149{fill:#EB7533;}
	.st150{fill:#EDE4CA;}
	.st151{fill:#575452;}
	.st152{fill:#F9F6F4;}
	.st153{fill:#94B2AA;}
	.st154{fill:#D8D7C4;}
	.st155{fill:#BAD68E;}
	.st156{fill:#F0E6E1;}
	.st157{fill:#BFD786;}
	.st158{fill:#E9E499;}
	.st159{fill:#A2D3C2;}
	.st160{fill:#EB7976;}
	.st161{fill:#EEF4E7;}
	.st162{fill:#EADA7F;}
	.st163{fill:#B2D9C2;}
	.st164{fill:#43B284;}
	.st165{fill:#9AC028;}
	.st166{fill:#D8AD80;}
	.st167{fill:#F2F2F2;}
	.st168{fill:#767574;}
	.st169{fill:#CDC8C6;}
	.st170{fill:#634E42;}
	.st171{fill:#E4E0DF;}
	.st172{fill:#D98F53;}
	.st173{fill:#E2CAB5;}
	.st174{fill:#B61824;}
	.st175{fill:#E2BAA0;}
	.st176{fill:#CF455A;}
	.st177{fill:#648546;}
	.st178{fill:#4F6834;}
	.st179{fill:#91BB64;}
	.st180{fill:#D1CE4D;}
	.st181{fill:#CFCE67;}
	.st182{fill:#E5E4BD;}
	.st183{fill:#A69F28;}
	.st184{fill:#E3BF32;}
	.st185{fill:#E68024;}
	.st186{fill:#D27444;}
	.st187{fill:#D1B05A;}
	.st188{fill:#F4E3BD;}
	.st189{fill:#668852;}
	.st190{fill:#A3C18F;}
	.st191{fill:#D8B41E;}
	.st192{fill:#E2DBBA;}
	.st193{fill:#603914;}
	.st194{fill:#CF1042;}
	.st195{fill:#2F8A7F;}
	.st196{fill:#D19A69;}
	.st197{fill:#E9C3A4;}
	.st198{fill:#F2BF21;}
	.st199{fill:#CFD3D1;}
	.st200{fill:#E9F2ED;}
	.st201{fill:#4E4D4D;}
	.st202{fill:#C4E2D0;}
	.st203{fill:#F3F3F3;}
	.st204{fill:#F8FAF9;}
	.st205{fill:#C6B5A8;}
	.st206{fill:#F2F1E7;}
	.st207{fill:#CEC87B;}
	.st208{fill:#C7E4E5;}
	.st209{fill:#D4894A;}
	.st210{fill:#FBFDFA;}
	.st211{fill:#B4CD5F;}
	.st212{fill:#1F1B15;}
	.st213{fill:#161210;}
	.st214{fill:#A8D1D2;}
	.st215{fill:#8E6640;}
	.st216{fill:#B22518;}
	.st217{fill:#683F1D;}
	.st218{fill:#F0F7F7;}
	.st219{fill:#CD924B;}
	.st220{fill:#CDCCCC;}
	.st221{fill:#F2D7C0;}
	.st222{fill:#B21924;}
	.st223{fill:#EDCEB1;}
	.st224{fill:#7D552C;}
	.st225{fill:#A0BC6F;}
	.st226{fill:#94AD65;}
	.st227{fill:#E7E6E6;}
	.st228{fill:#9FD6DB;}
	.st229{fill:#EACD7F;}
	.st230{fill:#E28C52;}
	.st231{fill:#141414;}
	.st232{fill:#E97E28;}
	.st233{fill:#D0C657;}
	.st234{fill:#F3BC95;}
	.st235{fill:#FBFDFC;}
	.st236{fill:#CA252F;}
	.st237{fill:#B8B6B7;}
	.st238{fill:#808181;}
	.st239{fill:#F7F5DB;}
	.st240{fill:#CA1618;}
	.st241{fill:#FDC30B;}
	.st242{fill:#5F3917;}
	.st243{fill:#FFDA36;}
	.st244{fill:#AB7049;}
	.st245{fill:#619DCF;}
	.st246{fill:#45779A;}
	.st247{fill:#68AFA1;}
	.st248{fill:#108E77;}
	.st249{fill:#A5779F;}
	.st250{fill:#008D36;}
	.st251{fill:#E83E49;}
	.st252{fill:#A12D38;}
	.st253{fill-rule:evenodd;clip-rule:evenodd;fill:#677124;}
</style>
<g>
	<g>
		<path class="st92" d="M156.3,266.4c-1.3-11.1-8.9-12.4-27-11.3l1.4,25.5c10.9-0.4,19-2.5,23-6.3
			C155.9,272.2,156.7,269.7,156.3,266.4z"/>
		<path class="st92" d="M334.1,241.3c0-4.7-3.8-8.5-8.5-8.5L106,233.6c-4.7,0-8.5,3.8-8.5,8.5l0.3,83.6c0,4.7,3.8,8.5,8.5,8.5
			l219.6-0.9c4.7,0,8.5-3.8,8.5-8.5L334.1,241.3z M100.5,243.4c1-0.8,2-1.5,3.1-2.3c-0.6-0.5-1.2-1-1.8-1.5c-1.4-1.2,0.7-3.1,2.1-2
			c0.7,0.6,1.3,1.1,2,1.7c0.9-0.8,1.8-1.6,2.6-2.6c1.1-1.4,3.8,0,2.6,1.4c-0.9,1.1-1.9,2.1-3,3c1,0.8,1.9,1.6,2.9,2.4
			c1.4,1.2-0.7,3.1-2.1,2c-1-0.8-2-1.7-3-2.5c-1,0.8-2.1,1.6-3.2,2.4C101.1,246.5,99,244.5,100.5,243.4z M113.1,323.5
			c-1.1,0.7-2.2,1.3-3.3,1.9c0.5,0.6,1.1,1.1,1.6,1.7c1.3,1.3-1.1,3-2.4,1.7c-0.6-0.6-1.2-1.2-1.8-1.9c-1,0.7-2,1.4-2.9,2.3
			c-1.3,1.3-3.7-0.4-2.4-1.6c1-1,2.2-1.9,3.3-2.7c-0.9-0.9-1.7-1.8-2.6-2.7c-1.3-1.3,1.1-3,2.4-1.7c0.9,0.9,1.8,1.9,2.7,2.8
			c1.1-0.7,2.3-1.4,3.4-2C112.9,320.4,114.7,322.6,113.1,323.5z M160.1,318.7c-8-6.6-18.1-22.5-22.1-29c-2.3,0.2-4.5,0.4-6.8,0.5
			l1.4,24.8l-10.1,0.5l-1.4-25.4c-2.1-0.1-4.1-0.2-6.1-0.4l1-9.5c1.6,0.1,3.1,0.2,4.6,0.3l-1.4-24.6c-1.2,0.1-2.4,0.1-3.6,0.2
			l-0.5-9.5c3-0.1,6.1-0.4,9.1-0.6c17.6-1.3,39.6-2.9,42.2,19.5c0.7,6.1-1.2,11.5-5.5,15.6c-3.2,3.1-7.5,5.2-12.4,6.7
			c4.9,7.7,12.7,19.2,18.3,23.8L160.1,318.7z M215.9,310.6c-4.9,5.5-11.3,8.4-19.1,8.4c-6.3,0-11.7-2-15.8-5.9
			c-11.3-10.9-10.7-34.4-10.3-55.2c0.1-4.4,0.2-8.5,0.2-12.4l10.1,0c0,4-0.1,8.2-0.2,12.6c-0.4,18-0.9,40.4,7.4,48.4
			c2.2,2.1,4.9,3.1,8.5,3.1c4.8,0,8.5-1.6,11.4-4.9c11.2-12.8,7.7-46.5,5.4-58.4l9.9-1.7c0.1,0.5,2.2,11.8,2.5,25.4
			C226.4,288.8,223,302.6,215.9,310.6z M230.3,316.2l-0.3-69.1l10.1,0l0.2,59.1l32.8-1.6l0.5,9.5L230.3,316.2z M277.7,314.3
			c0-0.6-0.3-65.1-0.3-65.1l0-5l38.5-0.6l0,9.6l-28.4,0.9l0.1,34.6l11.4-0.8l0.7,9.5l-12.1,0.8l0,11.2l34.5-0.1l0,9.5l-44.6,0.2
			L277.7,314.3z M328.9,329.2c-0.8-0.8-1.8-1.6-2.7-2.2c-0.5,0.6-1.1,1.3-1.6,1.9c-1.2,1.3-3.4-0.3-2.2-1.7c0.5-0.6,1-1.2,1.5-1.7
			c-1.1-0.6-2.1-1.3-3.2-1.9c-1.5-0.9,0.2-3.1,1.7-2.2c1.1,0.7,2.2,1.3,3.3,2c0.8-1,1.7-1.9,2.5-2.9c1.2-1.3,3.4,0.3,2.2,1.7
			c-0.8,0.9-1.6,1.8-2.4,2.7c1.1,0.8,2.2,1.7,3.2,2.6C332.5,328.8,330.2,330.4,328.9,329.2z M329.3,245.2c-1-0.8-2-1.6-3-2.3
			c-0.9,0.9-1.9,1.7-2.8,2.6c-1.3,1.2-3.3-0.7-2-1.9c0.9-0.8,1.8-1.6,2.7-2.4c-1-0.9-2-1.9-2.8-3c-1.1-1.4,1.3-2.8,2.4-1.4
			c0.7,0.9,1.6,1.8,2.4,2.5c0.6-0.6,1.2-1.1,1.8-1.7c1.3-1.2,3.3,0.7,2,1.9c-0.6,0.5-1.1,1-1.7,1.5c1,0.8,2,1.5,2.9,2.3
			C332.7,244.3,330.7,246.3,329.3,245.2z"/>
	</g>
	<g>
		<path class="st13" d="M147,108.1c-12.1-14.5-23.5,8.4-25.7,9.1c0.8-13.3,2.5-18.8-3-19.4c-13.5-1.5-6.1,105.9-4.5,121
			c0.2,2.3,0.5,4.6,1.2,6.8c1.3,3.9,6,4.8,8,1.3c1.5-2.6,3-2.4,5.2-2.1c5.6,0.7,10.4-1,14.6-4.6c6.2-5.4,6.1-13,0-18.4
			c-1.3-1.2-2.9-2.2-4.7-3.5c11.6-8.5,16.2-20.2,18.4-33.2c1.6-9.3,0.4-18.4-0.6-27.5C154.8,128.6,152.8,115,147,108.1z
			 M135.7,213.9c-1.8,1.2-3.8,1.9-5.8,1.8c-5.9-0.1-9-4.6-7.1-9.8c0.3-1,1.1-1.2,1.9-1.1c3.9,0.4,7.8,1,11.2,3.3
			C138.6,210,138.5,212,135.7,213.9z M147.4,162.5c-0.7,7.1-3,13.8-6.7,19.9c-4.1,6.7-10.4,10.1-18,12.5c0-10.6,0-20.6,0-30.6
			c0-7.6,0.6-15.1,1.8-22.6c3.3-19.6,14-40.5,18.9-20.3C146.6,135,148.7,148.6,147.4,162.5z"/>
		<path class="st13" d="M212.4,133.2c-0.9-7.7-2.6-15.4-6.9-22c-5.3-8.1-17.2-13.4-27.8-4.5c-3.7,3.1-6.4,7-8.4,11.4
			c-3.7,8.2-5.6,16.9-6,25.8c-0.8,17.4,0.9,34.6,4.3,51.6c1.5,7.6,3.7,15.1,7.8,21.7c2.7,4.3,5.9,7.9,10.6,10.1
			c7.2,3.3,14.1,1.5,18.7-5c2.5-3.5,4-7.6,5.1-11.7c4.2-16.1,5.4-32.5,4.9-49C214.2,152.2,213.5,142.7,212.4,133.2z M200.9,207.6
			c-0.8,3-1.7,6-3.3,8.7c-2.4,3.9-5.3,4.6-9.1,2c-3.4-2.3-5.5-5.7-7.1-9.3c-3.3-7.3-4.8-15-6.1-22.8c-1.7-10.2-2.5-20.6-2.9-31
			c-0.3-9.9,0.6-19.7,3.8-29.2c1.3-3.8,3-7.3,5.6-10.4c5.6-6.6,12.7-4.7,16.9,2.2c2.7,4.4,3.6,9.5,4.3,14.6
			c1.6,11.6,2.1,23.3,2.4,37.8C205.3,181,204.3,194.4,200.9,207.6z"/>
		<path class="st13" d="M272.9,114.6c-0.4-2.1-1.6-3.6-3.9-4c-2.4-0.4-4.2,0.7-5.3,2.8c-0.7,1.3-1.2,2.7-1.7,4.1
			c-2.4,6.7-4.7,13.4-7.1,20c-1.7,4.6-3.4,9.3-5.7,13.7c-1.4,2.8-3,5.5-5.3,7.7c-3.7,3.5-6.2,3.1-8.5-1.3c-0.8-1.5-1.4-3-1.9-4.6
			c-1.7-5.5-2.7-11.2-3.3-16.9c-0.9-8.9-0.5-17.8-0.1-26.7c0.2-4.6-1.4-6.9-4.3-7.1c-3.1-0.1-4.8,2-5.1,6.6
			c-0.5,11-0.9,22.1,0.8,33.1c1.1,6.8,2.4,13.6,5.7,19.9c5.3,10.2,14.8,11.7,23.1,3.7c3.9-3.7,6.5-8.3,8.6-13.1
			c1.6-3.6,3-7.2,4.5-10.8c0.3,0.1,0.7,0.2,1,0.3c-0.4,16.1,0,32.3-3.2,48.2c-1.6,8.1-3.6,16.1-8.1,23.2c-5.7,8.9-12.1,8.5-16.8-0.9
			c-2.7-5.4-3.6-11.3-4.1-17.2c-0.2-2-0.2-4-0.6-5.9c-0.4-1.9-1.6-3.2-3.7-3.4c-2.2-0.2-3.8,0.6-4.8,2.7c-0.6,1.2-0.7,2.6-0.6,3.9
			c0.6,4.9,1.1,9.8,2.1,14.7c1.3,6.2,3.8,12,8.3,16.6c6.3,6.4,15.6,8,23.2,0.5c4-3.9,6.7-8.5,8.8-13.6c3.7-8.7,5.7-17.9,6.8-27.2
			c2.5-21,2.2-42.1,1.9-63.2C273.6,118.2,273.3,116.4,272.9,114.6z"/>
		<path class="st13" d="M309,171.7c-4.4-7.5-8.9-15-12.5-23c-3.5-7.7-6-15.7-6.1-25c0.1-3.9,0.7-8.5,2.9-12.7c2-3.8,4.4-4.4,8-2.1
			c2.6,1.6,4.5,3.9,5.9,6.5c1.3,2.5,2,5.2,2.9,7.9c1,3,3.1,4.5,5.4,4c2.6-0.6,4.1-2.9,3.4-6.2c-1.7-8.6-5.7-15.8-13.4-20.5
			c-7.8-4.7-15.2-2.8-19.9,5c-2.6,4.3-3.8,9.1-4.3,14.1c-1,11.1,1.7,21.6,6.2,31.7c3.8,8.6,8.6,16.7,13.4,24.8
			c4.3,7.2,8.5,14.5,11.6,22.3c1.3,3.4,2.5,6.8,2.5,10.5c0,4.2-1.2,7.9-5.3,9.9c-4.4,2.1-8.3,1-11.9-2c-2.6-2.2-4.3-5-5.5-8.1
			c-1.3-3.2-2.4-6.5-3.8-9.6c-1.4-3.1-3.8-4.2-6.3-3.2c-2.5,1-3.4,3.2-2.2,6.6c1.4,3.9,2.7,7.8,4.5,11.5c2.5,5.3,6.1,9.8,11.4,12.6
			c12.5,6.6,27.1-0.7,28.2-15.4c0.4-5.5-0.8-10.8-2.8-15.9C318,187.1,313.5,179.4,309,171.7z"/>
		<path class="st13" d="M372.5,255.4c4.2-11.8,6.5-25.6,5-38.1c-3.1-24.5-19.6-44.7-42.6-53.3c-5.3-2-7.6,6.5-2.3,8.5
			c19.6,7.3,34,25.4,36.3,46.3c1.1,10.5-1,21.4-3.9,31.5c-2.3,7.9-7.3,13.5-13.2,18.3c0-0.1,0.1-0.2,0.1-0.3c1.5-5.5-7-7.8-8.5-2.3
			c-0.8,3-1.7,6-2.5,9c-0.7,2.7-1.5,5.6,1,7.6c2.3,1.7,5.8,0.9,8.4,0.8c3.3-0.2,6.7-0.3,10-0.5c5.6-0.3,5.7-9.1,0-8.8
			c-0.5,0-1.1,0.1-1.6,0.1C364.7,269.1,369.7,263.3,372.5,255.4z"/>
		<path class="st13" d="M99.3,171.9c-23.3,7.8-40.5,27.4-44.5,51.8c-2,12.4-0.2,26.3,3.6,38.2c2.5,7.9,7.4,13.9,13.1,19.2
			c-0.5,0-1.1-0.1-1.6-0.1c-5.7-0.5-5.9,8.3-0.3,8.8c3.3,0.3,6.7,0.6,10,0.8c2.6,0.2,6.1,1.2,8.5-0.5c2.6-1.9,1.9-4.9,1.3-7.6
			c-0.7-3-1.5-6-2.2-9.1c-1.3-5.5-9.9-3.5-8.6,2c0,0.1,0,0.2,0.1,0.3c-5.8-5.1-10.5-10.7-12.6-18.8c-2.6-10.2-4.3-21.1-2.8-31.6
			c3-20.8,18.1-38.4,37.9-45C106.7,178.7,104.7,170.1,99.3,171.9z"/>
	</g>
</g>
</svg>
